<svg width="1014" height="894" viewBox="0 0 1014 894" fill="none" xmlns="http://www.w3.org/2000/svg">
<path d="M354.185 678.73L342.242 882.878" stroke="#FFDCEA" stroke-miterlimit="10" stroke-linecap="round"/>
<path d="M463.109 841.271L498.589 836.313" stroke="#FFDCEA" stroke-miterlimit="10" stroke-linecap="round"/>
<path d="M349.938 751.626L389.85 678.73" stroke="#FFDCEA" stroke-miterlimit="10" stroke-linecap="round"/>
<path d="M829.935 656.33L816.884 813.243" stroke="#FFDCEA" stroke-miterlimit="10" stroke-linecap="round"/>
<path d="M758.543 835.71L715.286 829.636" stroke="#FFDCEA" stroke-miterlimit="10" stroke-linecap="round"/>
<path d="M814.421 866.687H459.6C446.979 866.687 436.76 855.565 436.76 841.83V109.567C436.76 95.8319 446.979 84.71 459.6 84.71H814.421C827.041 84.71 837.261 95.8319 837.261 109.567V841.807C837.24 855.542 827.021 866.687 814.421 866.687Z" fill="#320018"/>
<path d="M651.323 825.303C651.323 833.924 644.9 840.892 637 840.892C629.079 840.892 622.677 833.901 622.677 825.303C622.677 816.682 629.1 809.714 637 809.714C644.921 809.714 651.323 816.705 651.323 825.303Z" stroke="white" stroke-miterlimit="10" stroke-linecap="round" stroke-linejoin="round"/>
<path d="M826.549 140.476H447.472V784.143H826.549V140.476Z" fill="white"/>
<path d="M602.587 110.885H671.413" stroke="white" stroke-width="3" stroke-miterlimit="10" stroke-linecap="round" stroke-linejoin="round"/>
<path d="M577.08 110.885H589.782" stroke="white" stroke-width="3" stroke-miterlimit="10" stroke-linecap="round" stroke-linejoin="round"/>
<path opacity="0.25" d="M519.397 128.617H343.084C312.836 128.617 288.335 155.305 288.335 188.202C288.335 221.121 312.857 247.787 343.084 247.787H358.802L368.652 261.656L378.502 247.787H519.376C549.623 247.787 574.125 221.099 574.125 188.202C574.145 155.283 549.623 128.617 519.397 128.617Z" fill="#B7D1FF"/>
<path opacity="0.25" d="M628.566 218.24H804.879C835.126 218.24 859.628 244.929 859.628 277.826C859.628 310.745 835.106 337.411 804.879 337.411H797.368L787.518 351.28L777.669 337.411H628.587C598.339 337.411 573.838 310.722 573.838 277.826C573.797 244.906 598.319 218.24 628.566 218.24Z" fill="#B7D1FF"/>
<path opacity="0.25" d="M706.052 425.895H523.583C493.335 425.895 468.834 452.583 468.834 485.48C468.834 518.399 493.356 545.065 523.583 545.065H539.302L549.151 558.934L559.001 545.065H706.031C736.279 545.065 760.78 518.377 760.78 485.48C760.801 452.561 736.299 425.895 706.052 425.895Z" fill="#B7D1FF"/>
<path d="M499.409 454.839H725.751" stroke="white" stroke-width="1.5" stroke-miterlimit="10" stroke-linecap="round" stroke-linejoin="round"/>
<path d="M564.542 475.251H725.751" stroke="white" stroke-width="1.5" stroke-miterlimit="10" stroke-linecap="round" stroke-linejoin="round"/>
<path d="M499.409 475.251H544.924" stroke="white" stroke-width="1.5" stroke-miterlimit="10" stroke-linecap="round" stroke-linejoin="round"/>
<path d="M671.474 495.686H725.751" stroke="white" stroke-width="1.5" stroke-miterlimit="10" stroke-linecap="round" stroke-linejoin="round"/>
<path d="M499.409 495.686H650.544" stroke="white" stroke-width="1.5" stroke-miterlimit="10" stroke-linecap="round" stroke-linejoin="round"/>
<path d="M499.409 516.099H615.925" stroke="white" stroke-width="1.5" stroke-miterlimit="10" stroke-linecap="round" stroke-linejoin="round"/>
<path opacity="0.25" d="M575.151 616.085H757.62C787.867 616.085 812.369 642.773 812.369 675.67C812.369 708.589 787.847 735.255 757.62 735.255H741.901L732.051 749.124L722.202 735.255H575.172C544.924 735.255 520.423 708.567 520.423 675.67C520.382 642.751 544.904 616.085 575.151 616.085Z" fill="#B7D1FF"/>
<path d="M550.957 645.029H777.32" stroke="white" stroke-width="1.5" stroke-miterlimit="10" stroke-linecap="round" stroke-linejoin="round"/>
<path d="M652.185 665.464H777.32" stroke="white" stroke-width="1.5" stroke-miterlimit="10" stroke-linecap="round" stroke-linejoin="round"/>
<path d="M550.957 665.464H635.01" stroke="white" stroke-width="1.5" stroke-miterlimit="10" stroke-linecap="round" stroke-linejoin="round"/>
<path d="M735.991 685.876H777.32" stroke="white" stroke-width="1.5" stroke-miterlimit="10" stroke-linecap="round" stroke-linejoin="round"/>
<path d="M550.957 685.876H715.06" stroke="white" stroke-width="1.5" stroke-miterlimit="10" stroke-linecap="round" stroke-linejoin="round"/>
<path d="M550.957 706.311H692.837" stroke="white" stroke-width="1.5" stroke-miterlimit="10" stroke-linecap="round" stroke-linejoin="round"/>
<path d="M389.234 286.826C387.593 284.28 385.684 281.622 382.935 280.796C382.155 280.55 381.334 280.483 380.513 280.461C377.25 280.394 373.988 281.31 371.156 283.052C370.355 283.543 369.576 284.124 368.94 284.861C368.18 285.732 367.893 286.446 367.975 287.608C368.037 288.456 368.057 289.327 367.996 290.176C367.914 291.516 367.647 292.789 367.38 294.107C366.641 297.591 366.764 300.896 367.462 304.402C367.729 305.72 367.749 307.149 367.277 308.378C366.867 309.472 366.067 310.298 365.348 311.124C363.892 312.799 362.558 314.653 361.798 316.842C361.019 319.03 360.834 321.576 361.634 323.743C362.045 324.882 362.701 325.887 363.214 326.981C364.487 329.75 364.692 333.123 363.789 336.093C363.584 336.763 364.015 337.478 364.651 337.612C370.294 338.751 376.019 339.398 381.703 338.728C387.839 337.991 393.934 335.669 398.735 331.224" fill="#00276F"/>
<path d="M370.807 280.014C368.427 291.739 370.253 323.408 378.317 327.338C386.382 331.269 396.56 322.47 399.597 318.517C404.03 312.732 412.402 288.233 404.892 280.439C397.361 272.644 374.131 263.577 370.807 280.014Z" fill="#F8BD86"/>
<path d="M389.173 320.214L395.083 343.485L392.744 349.783C392.744 349.783 391.184 362.335 393.092 362.982C400.747 365.528 417.614 339.912 417.614 339.912L404.132 306.412" fill="#F8BD86"/>
<path d="M410.514 281.957C408.175 270.857 395.37 263.822 384.351 265.654C375.321 262.818 357.776 273.18 365.615 293.526C365.615 293.526 372.592 286.513 381.519 277.2C387.162 296.451 408.606 306.189 408.606 306.189C408.606 306.189 413.326 295.357 410.514 281.957Z" fill="#00276F"/>
<path d="M381.765 266.257C389.871 254.465 409.447 262.17 414.557 268.088C420.344 274.81 422.642 281.577 429.332 286.044C432.43 288.099 436.268 289.439 437.991 292.923C440.351 297.724 437.458 304.447 440.556 308.712C441.87 310.499 448.149 316.015 448.149 324.904C441.295 329.996 435.734 328.366 428.1 331.693C422.58 334.128 414.967 338.081 408.749 339.22C408.011 339.354 407.375 338.661 407.457 337.835C407.764 334.954 408.257 331.291 407.108 329.036C406.513 327.852 405.528 326.981 404.83 325.864C403.106 323.162 403.291 319.589 403.784 316.35C404.255 313.112 404.953 309.74 404.05 306.613C403.209 303.71 401.116 301.476 398.92 299.6" fill="#00276F"/>
<path d="M402.573 264.671C401.013 264.85 399.905 263.063 399.331 261.478C398.571 259.378 398.099 257.011 398.756 254.867C400.295 249.842 406.431 249.529 409.96 252.053C412.997 254.219 415.214 259.11 412.751 262.684C411.027 265.185 407.477 265.743 404.851 266.279" fill="#00276F"/>
<path d="M398.961 303.442C399.002 302.995 399.372 302.682 399.72 302.414C401.28 301.253 403.209 300.047 404.953 300.851C405.856 301.275 406.492 302.191 406.862 303.174C408.093 306.479 407.723 310.901 405.425 313.626C403.353 316.06 397.915 317.713 396.991 313.224" fill="#F8BD86"/>
<path d="M378.523 299.958C378.523 299.958 373.228 309.985 374.911 311.794C376.594 313.603 379.959 312.487 379.959 312.487" stroke="#D34F9B" stroke-width="0.75" stroke-miterlimit="10"/>
<path d="M385.048 299.6C385.007 300.36 385.274 301.275 385.377 301.856C385.541 302.883 386.628 303.129 387.346 302.593C388.701 301.588 387.49 297.657 385.725 298.461C385.253 298.662 385.089 299.109 385.048 299.6Z" fill="#00276F"/>
<path d="M371.423 299.6C371.382 300.36 371.648 301.275 371.751 301.856C371.915 302.883 373.003 303.129 373.721 302.593C375.075 301.588 373.865 297.657 372.1 298.461C371.628 298.662 371.464 299.109 371.423 299.6Z" fill="#00276F"/>
<path d="M381.416 295.514C381.416 295.514 384.72 291.025 390.363 295.514" stroke="#00276F" stroke-width="0.75" stroke-miterlimit="10" stroke-linecap="round"/>
<path d="M370.889 295.826C372.12 294.486 374.172 293.436 376.409 295.536" stroke="#00276F" stroke-width="0.75" stroke-miterlimit="10" stroke-linecap="round"/>
<path d="M377.25 317.467L387.511 314.765C387.511 314.765 385.705 321.509 380.616 321.509C378.133 321.509 377.25 317.467 377.25 317.467Z" fill="white"/>
<path d="M390.876 326.936C390.876 326.936 397.751 324.502 400.48 318.137" stroke="#D34F9B" stroke-width="0.75" stroke-miterlimit="10"/>
<path d="M302.083 396.772C302.083 396.772 300.442 401.641 303.253 409.994C306.885 420.758 345.956 487.267 370.766 489.746C395.575 492.225 420.528 411.267 420.528 386.343C420.528 361.419 400.336 353.982 387.388 371.96C374.439 389.938 359.521 452.405 359.521 452.405L302.083 396.772Z" fill="#F8BD86"/>
<path d="M327.652 418.592C326.708 414.885 322.912 408.698 320.901 405.706C319.772 404.031 315.873 398.112 313.657 399.251C312.118 400.033 313.739 404.477 314.355 405.706C315.237 407.515 316.448 409.033 317.659 410.53" fill="#DD3C91"/>
<path d="M327.509 805.627L317.679 857.641C317.679 857.641 278.464 882.722 278.464 883.258C278.464 883.794 315.791 885.245 315.791 885.245L332.31 876.446H348.439C350.327 876.446 351.723 874.525 351.312 872.538L347.947 856.502L365.431 801.741" fill="#F8BD86"/>
<path d="M281.153 877.25C287.021 873.543 309.081 861.661 309.081 861.661L332.167 876.446H352.113V888.975H332.167V879.528H329.622C328.74 879.528 327.857 879.841 327.16 880.444L318.459 887.769C317.515 888.573 316.345 888.997 315.155 888.997C315.155 888.997 283.595 888.997 278.444 888.997C273.293 888.997 272.165 882.945 281.153 877.25Z" fill="#00276F"/>
<path d="M340.498 878.836L349.979 864.922L348.87 859.607L337.625 876.513L340.498 878.836Z" fill="#00276F"/>
<path d="M462.575 458.211C462.575 458.211 492.679 509.957 459.169 562.195C445.625 583.322 400.11 671.449 400.11 671.449L375.014 829.77H308.671C308.671 829.77 329.95 672.945 339.534 644.649C349.117 616.353 408.934 483.582 408.934 483.582V463.035" fill="#464646"/>
<path d="M423.976 767.393L457.671 804.332C457.671 804.332 439.038 848.731 439.325 849.177C439.592 849.602 470.516 827.804 470.516 827.804L479.299 810.541L492.33 800.602C493.848 799.441 493.992 797.029 492.617 795.667L481.577 784.79L452.643 740.928" fill="#F8BD86"/>
<path d="M438.381 842.678C441.193 836.045 452.848 812.886 452.848 812.886L479.197 810.608L495.305 798.324L501.81 808.441L485.702 820.725L480.777 813.087L478.725 814.65C478.006 815.208 477.473 815.99 477.206 816.906L473.964 828.184C473.615 829.412 472.897 830.462 471.932 831.199C471.932 831.199 446.425 850.629 442.28 853.8C438.156 856.971 434.092 852.795 438.381 842.678Z" fill="#00276F"/>
<path d="M487.138 807.392L487.569 790.329L483.917 786.733L483.609 807.302L487.138 807.392Z" fill="#00276F"/>
<path d="M405.795 462.589L403.373 483.604C403.373 483.604 323.733 589.843 323.733 634.689C323.733 678.439 413.592 787.649 413.592 787.649L463.95 745.93L398.53 644.001C398.53 644.001 462.493 559.18 473.533 547.165C492.001 527.065 490.75 492.828 467.438 458.211" fill="#666666"/>
<path d="M404.235 476.167C404.235 476.167 439.612 480.142 473.205 467.569" stroke="#AF480E" stroke-width="0.75" stroke-miterlimit="10"/>
<path d="M419.215 476.77V464.375" stroke="#AF480E" stroke-width="0.75" stroke-miterlimit="10" stroke-linecap="round"/>
<path d="M463.498 470.762L459.599 459.306" stroke="#AF480E" stroke-width="0.75" stroke-miterlimit="10"/>
<path d="M451.432 756.293L385.849 653.27C382.319 647.731 382.463 640.361 386.177 634.979C401.444 612.958 440.043 557.46 448.149 547.165C465.14 525.546 466.905 500.131 454.1 473.085" stroke="#AF480E" stroke-width="0.75" stroke-miterlimit="10"/>
<path d="M452.438 747.449L451.268 745.618" stroke="#AF480E" stroke-width="0.75" stroke-miterlimit="10"/>
<path d="M449.524 742.893L390.609 650.478C388.147 646.615 388.229 641.478 390.835 637.704C404.522 617.961 446.241 557.929 454.695 547.165C470.947 526.484 472.302 501.471 461.18 475.676" stroke="#AF480E" stroke-width="0.75" stroke-miterlimit="10" stroke-dasharray="1.99 1.99"/>
<path d="M460.523 474.179C460.215 473.509 459.907 472.839 459.599 472.192" stroke="#AF480E" stroke-width="0.75" stroke-miterlimit="10"/>
<path d="M438.71 475.587C438.71 475.587 440.905 484.23 447.328 487.58C453.751 490.93 460.933 492.962 460.933 492.962" stroke="#AF480E" stroke-width="0.75" stroke-miterlimit="10"/>
<path d="M476.426 498.59C476.426 498.59 479.32 498.344 484.553 496.647" stroke="#AF480E" stroke-width="0.75" stroke-miterlimit="10"/>
<path d="M476.426 502.878C476.426 502.878 480.141 502.766 485.353 501.069" stroke="#AF480E" stroke-width="0.75" stroke-miterlimit="10"/>
<path d="M405.979 778.09L415.07 791.959L467.069 747.605L457.199 735.411L405.979 778.09Z" fill="#AF480E"/>
<path d="M307.46 829.77L310.825 814.181H377.497V829.77H307.46Z" fill="#AF480E"/>
<path d="M333.603 424.466C333.89 424.778 333.911 425.292 333.603 425.627L331.838 427.57C331.551 427.883 331.079 427.905 330.771 427.57L295.927 390.184C295.64 389.871 295.62 389.358 295.927 389.023L297.692 387.08C297.979 386.767 298.451 386.745 298.759 387.08" fill="#00276F"/>
<path d="M300.442 392.038L303.253 395.053" stroke="#2D5491" stroke-width="0.5" stroke-miterlimit="10" stroke-linecap="round"/>
<path d="M304.361 396.303L304.792 396.772" stroke="#2D5491" stroke-width="0.5" stroke-miterlimit="10" stroke-linecap="round"/>
<path d="M457.404 372.362C444.353 343.128 417.204 338.996 417.204 338.996C417.204 338.996 395.657 358.225 392.723 349.783C389.583 354.853 369.555 392.685 372.284 412.048C375.014 431.411 390.404 434.091 393.482 438.29C396.56 442.489 403.825 469.378 404.789 471.231C435.816 470.584 467.397 458.211 467.397 458.211C467.397 458.211 471.337 403.584 457.404 372.362Z" fill="#0070E4"/>
<path d="M447.205 379.933C441.747 357.332 424.366 345.294 409.057 351.302C395.863 356.483 393.195 373.233 396.971 395.276C400.767 417.341 399.823 447.112 399.823 447.112C399.823 447.112 352.174 427.927 343.207 424.041C334.014 415.532 322.686 406.644 320.757 406.644C318.828 406.644 319.772 410.128 322.399 412.964C325.128 415.934 329.54 420.267 325.846 419.91C323.056 419.642 304.895 399.765 304.895 399.765C303.376 401.418 305.182 406.041 305.182 406.041C305.182 406.041 305.469 413.656 311.154 420.691C350.635 469.512 397.114 503.525 426.479 491.867C454.121 480.946 449.155 387.995 447.205 379.933Z" fill="#F8BD86"/>
<path d="M318.726 422.389C318.726 422.389 317.618 421.696 316.079 420.423C314.56 419.15 312.672 417.274 310.969 415.197C309.266 413.12 307.747 410.909 306.721 409.123C305.716 407.358 305.182 406.063 305.182 406.063C305.182 406.063 306.106 407.046 307.419 408.52C308.732 410.016 310.415 412.026 312.118 414.058C313.78 416.113 315.442 418.168 316.694 419.709C317.31 420.49 317.823 421.16 318.192 421.629C318.541 422.121 318.726 422.389 318.726 422.389Z" fill="#D34F9B"/>
<path d="M450.94 383.663C447.287 358.784 429.824 343.887 412.833 348.555C398.182 352.575 393.688 370.241 395.596 394.316C396.15 401.373 396.725 409.167 397.217 416.627L450.899 423.505C452.048 403.696 451.432 387.035 450.94 383.663Z" fill="#0070E4"/>
<path d="M450.919 423.528C452.048 403.696 451.453 387.035 450.96 383.663C447.308 358.784 429.845 343.887 412.854 348.555C398.202 352.575 393.708 370.241 395.616 394.316C396.171 401.373 396.745 409.167 397.238 416.627" stroke="white" stroke-width="0.75" stroke-miterlimit="10"/>
<path d="M824.25 801.741L828.601 799.508L855.216 861.081C856.509 864.073 859.135 866.106 862.172 866.419L862.48 866.91L855.503 870.483C855.236 870.617 854.949 870.639 854.682 870.55L854.436 870.461C852.692 869.835 851.255 868.473 850.476 866.664L823.471 804.198C823.04 803.26 823.409 802.166 824.25 801.741Z" fill="#00276F"/>
<path d="M899.294 726.746L849.983 791.289L831.945 802.992L857.555 862.22C858.396 864.185 860.572 865.034 862.377 864.118C863.732 863.426 864.553 861.885 864.45 860.277L861.823 820.97L915.834 772.641" fill="#F8BD86"/>
<path d="M864.306 817.955L865.435 862.309C865.476 864.14 864.389 865.927 862.685 866.798C860.408 867.959 857.473 866.351 856.529 864.185L828.56 799.508L850.64 790.843C850.681 790.843 848.547 805.761 864.306 817.955Z" fill="#666666"/>
<path d="M866.194 826.576C862.829 825.75 859.381 825.37 855.934 825.437" stroke="#00276F" stroke-miterlimit="10" stroke-linecap="round"/>
<path d="M865.62 832.517C861.967 831.757 860.038 831.69 856.96 831.69" stroke="#00276F" stroke-miterlimit="10" stroke-linecap="round"/>
<path d="M865.435 837.385C863.014 836.827 859.977 836.805 857.514 836.671" stroke="#00276F" stroke-miterlimit="10" stroke-linecap="round"/>
<path d="M925.273 500.53L932.353 518.329C934.651 524.114 938.078 529.295 942.387 533.516C961.779 552.455 1010.8 627.003 1011.34 658.426C1011.99 696.392 904.855 818.734 904.855 818.734L863.034 767.658L947.251 658.292L874.115 582.269C874.115 582.269 840.728 569.45 854.169 504.416" fill="#00224C"/>
<path d="M875.326 767.415L954.166 660.752C957.059 657.29 956.669 651.93 953.325 648.982L886.305 575.751C886.305 575.751 852.897 562.418 866.318 494.905" stroke="#15489B" stroke-width="0.75" stroke-miterlimit="10" stroke-dasharray="2 2"/>
<path d="M875.08 775.276L958.742 663.32C962.846 658.407 962.313 650.746 957.552 646.57C957.552 646.57 886.058 570.235 885.791 570.123C882.241 568.448 860.49 554.914 873.089 491.51" stroke="#15489B" stroke-width="0.75" stroke-miterlimit="10"/>
<path d="M870.483 758.325L856.673 772.261L901.88 823.137L914.582 808.508L870.483 758.325Z" fill="#15489B"/>
<path d="M957.388 887.143V881.918H1019.91C1022.95 881.918 1025.76 880.175 1027.32 877.339L1027.86 877.228V885.625C1027.86 885.937 1027.75 886.228 1027.55 886.473L1027.36 886.697C1026.11 888.148 1024.37 888.975 1022.52 888.975H959.071C958.147 888.997 957.388 888.171 957.388 887.143Z" fill="#00276F"/>
<path d="M933.851 791.58L959.666 857.373L961.718 880.109H1021.86C1023.85 880.109 1025.48 878.344 1025.48 876.178C1025.48 874.548 1024.55 873.096 1023.16 872.493L989.359 858.334L972.183 784.567" fill="#F8BD86"/>
<path d="M987.943 854.604L1025.29 872.359C1026.83 873.096 1027.86 874.927 1027.86 876.959C1027.86 879.684 1025.27 881.895 1023.07 881.895H957.408L959.604 856.458C959.583 856.48 971.075 864.922 987.943 854.604Z" fill="#666666"/>
<path d="M995.905 856.413C993.791 859.383 992.006 862.622 990.59 866.039" stroke="#00276F" stroke-miterlimit="10" stroke-linecap="round"/>
<path d="M1000.6 859.517C998.408 862.778 997.547 864.654 996.233 867.691" stroke="#00276F" stroke-miterlimit="10" stroke-linecap="round"/>
<path d="M1004.56 861.773C1003.09 863.917 1001.75 866.91 1000.58 869.277" stroke="#00276F" stroke-miterlimit="10" stroke-linecap="round"/>
<path d="M830.058 512.548C830.058 512.548 827.431 552.748 843.683 590.714C859.956 628.681 925.745 849.177 925.745 849.177L984.106 821.863L913.31 559.448C913.31 559.448 910.97 526.707 898.802 483.582" fill="#00276F"/>
<path d="M942.1 841.539L861.187 590.357C861.187 590.357 844.73 559.09 844.73 535.261" stroke="#1B5ABF" stroke-width="0.75" stroke-miterlimit="10"/>
<path d="M937.544 843.661L854.662 590.335C854.662 590.335 838.204 559.068 838.204 535.239" stroke="#1B5ABF" stroke-width="0.75" stroke-miterlimit="10" stroke-dasharray="2 2"/>
<path d="M920.697 832.338L926.32 852.013L985.829 825.95L980.33 807.838L920.697 832.338Z" fill="#1B5ABF"/>
<path d="M849.429 563.2C849.429 563.2 865.969 554.2 870.258 533.72" stroke="#1B5ABF" stroke-width="0.75" stroke-miterlimit="10"/>
<path d="M913.474 566.393C913.474 566.393 920.061 558.175 919.425 551.452C917.68 532.938 913.474 509.488 913.474 509.488" stroke="#00276F" stroke-width="0.75" stroke-miterlimit="10"/>
<path d="M995.556 393.355L980.945 377.208C980.945 377.208 994.612 339.845 996.151 340.202C999.291 340.939 993.627 356.818 993.627 356.818C993.627 356.818 1001.65 339.823 1002.76 340.939C1004.77 342.949 999.004 360.347 999.004 360.347C999.004 360.347 1006 343.53 1007.36 345.294C1008.73 347.081 1002.35 373.188 1002.35 373.188L995.556 393.355Z" fill="#F8BD86"/>
<path d="M978.155 378.951L980.884 373.189C980.884 373.189 981.746 363.362 984.044 356.193C986.363 349.024 988.066 345.585 989.277 345.585C990.488 345.585 989.277 356.729 989.277 356.729C989.277 356.729 991.37 366.31 988.333 372.541" fill="#F8BD86"/>
<path d="M996.418 376.762L986.24 366.422C985.809 365.997 985.645 365.283 985.871 364.68L997.424 331.649C997.424 331.649 997.957 331.783 998.326 331.894C998.532 331.961 998.778 332.006 998.983 332.185L1010.13 342.748C1010.56 343.173 1010.72 343.887 1010.49 344.49L998.942 376.36C998.778 376.829 998.388 377.119 997.998 377.142L996.418 376.762Z" fill="white"/>
<path d="M996.09 376.561L985.07 366.109C984.639 365.685 984.475 364.97 984.701 364.367L996.315 332.341C996.562 331.649 997.3 331.425 997.813 331.894L1008.96 342.458C1009.39 342.882 1009.55 343.597 1009.33 344.2L997.772 376.07C997.485 376.829 996.664 377.075 996.09 376.561Z" fill="#00276F"/>
<path d="M985.542 362.067L998.408 374.283L1008.52 346.389L995.659 334.195L985.542 362.067Z" fill="#8DADE0"/>
<path d="M991.288 369.526C991.185 369.973 990.857 370.174 990.57 369.995C990.262 369.816 990.098 369.303 990.2 368.856C990.303 368.409 990.631 368.208 990.918 368.387C991.226 368.565 991.39 369.079 991.288 369.526Z" fill="#8DADE0"/>
<path d="M1001.38 337.277L1003.62 339.443" stroke="#8DADE0" stroke-width="0.25" stroke-miterlimit="10" stroke-linecap="round"/>
<path opacity="0.55" d="M994.776 342.726C994.673 343.15 994.366 343.351 994.099 343.173C993.812 342.994 993.668 342.525 993.75 342.101C993.853 341.676 994.161 341.475 994.427 341.654C994.735 341.833 994.879 342.302 994.776 342.726Z" fill="#8DADE0"/>
<path opacity="0.51" d="M1005.24 347.371L998.47 340.939C997.752 340.247 996.664 340.582 996.295 341.587L995.453 343.932L994.776 344.066L1003.07 351.883C1003.78 352.575 1004.87 352.24 1005.24 351.235L1005.75 349.806C1006.06 348.957 1005.86 347.952 1005.24 347.371Z" fill="white"/>
<path d="M997.588 342.503L1004.42 348.957" stroke="#8DADE0" stroke-width="0.25" stroke-miterlimit="10" stroke-linecap="round"/>
<path d="M996.972 344.267L1000.89 347.974" stroke="#8DADE0" stroke-width="0.25" stroke-miterlimit="10" stroke-linecap="round"/>
<path opacity="0.55" d="M988.189 359.855C988.087 360.28 987.779 360.481 987.512 360.302C987.225 360.123 987.081 359.655 987.163 359.23C987.245 358.806 987.574 358.605 987.84 358.784C988.128 358.94 988.271 359.431 988.189 359.855Z" fill="#8DADE0"/>
<path opacity="0.51" d="M998.634 364.501L991.862 358.069C991.144 357.376 990.057 357.711 989.687 358.716L988.846 361.062L988.169 361.195L996.459 369.012C997.177 369.705 998.265 369.37 998.634 368.365L999.147 366.935C999.455 366.064 999.25 365.082 998.634 364.501Z" fill="white"/>
<path d="M991.001 359.61L997.834 366.086" stroke="#8DADE0" stroke-width="0.25" stroke-miterlimit="10" stroke-linecap="round"/>
<path d="M990.364 361.396L994.284 365.104" stroke="#8DADE0" stroke-width="0.25" stroke-miterlimit="10" stroke-linecap="round"/>
<path opacity="0.55" d="M1002.55 360.995C1002.45 361.419 1002.14 361.62 1001.88 361.441C1001.59 361.263 1001.45 360.794 1001.53 360.369C1001.63 359.945 1001.94 359.744 1002.2 359.923C1002.49 360.101 1002.64 360.57 1002.55 360.995Z" fill="#8DADE0"/>
<path opacity="0.51" d="M1001.3 355.121L993.976 348.175C993.36 347.595 992.457 347.885 992.15 348.734L991.349 350.945C991.124 351.548 991.288 352.262 991.719 352.664L1000.75 361.173L1000.52 359.99L1001.67 356.863C1001.88 356.238 1001.73 355.523 1001.3 355.121Z" fill="white"/>
<path d="M993.34 349.962L1000.17 356.416" stroke="#8DADE0" stroke-width="0.25" stroke-miterlimit="10" stroke-linecap="round"/>
<path d="M992.724 351.726L996.644 355.434" stroke="#8DADE0" stroke-width="0.25" stroke-miterlimit="10" stroke-linecap="round"/>
<path d="M997.218 356.037L998.737 357.466" stroke="#8DADE0" stroke-width="0.25" stroke-miterlimit="10" stroke-linecap="round"/>
<path d="M1008.79 337.79L1011.34 340.537L985.604 373.68L983.08 370.933L1008.79 337.79Z" fill="url(#paint0_linear_1_1022)"/>
<path d="M1008.59 334.708L1009.22 335.401L983.49 368.543L982.854 367.851L1008.59 334.708Z" fill="url(#paint1_linear_1_1022)"/>
<path d="M935.328 400.882L949.754 426.096L980.884 373.188C980.884 373.188 1003.09 375.444 1000.54 387.415C988.21 421.317 978.155 472.839 953.899 475.452C927.243 478.311 893.282 424.086 893.282 424.086" fill="#F8BD86"/>
<path d="M949.754 426.096C949.754 426.096 943.311 435.811 938.529 450.171" stroke="#D34F9B" stroke-width="0.75" stroke-miterlimit="10"/>
<path d="M998.019 394.16C998.019 394.16 1006.97 370.419 1008.07 365.908C1009.16 361.397 1012.03 348.957 1010.19 348.957C1008.36 348.957 1004.03 360.883 1003.56 362.871C999.906 364.992 994.715 368.834 994.776 375.735" fill="#F8BD86"/>
<path d="M879.451 334.195C879.451 334.195 909.903 337.277 943.495 411.378C936.908 421.808 902.721 443.806 893.261 443.605C883.021 427.324 873.397 385.628 873.397 385.628" fill="white"/>
<path d="M909.493 399.229C900.033 358.56 885.792 339.019 885.792 339.019L854.559 329.259L829.278 363.429C803.873 447.469 828.17 539.906 828.17 539.906C845.674 548.036 918.235 531.509 935.923 512.258C935.903 512.258 917.475 433.488 909.493 399.229Z" fill="white"/>
<path d="M917.25 432.885C917.25 432.885 903.993 368.834 897.201 356.751" stroke="#225BAF" stroke-width="0.75" stroke-miterlimit="10"/>
<path d="M798.764 393.355C798.764 393.355 783.476 438.111 787.518 464.375C793.716 504.731 853.472 543.279 853.472 543.279C853.472 543.279 851.44 554.132 855.667 559.291C866.174 550.76 869.56 540.375 869.56 540.375L864.553 531.33C864.553 531.33 831.802 475.229 832.766 456.76C833.443 443.695 852.056 378.794 852.056 378.794" fill="#F8BD86"/>
<path d="M854.559 329.259C854.559 329.259 821.377 339.376 807.32 366.779C790.288 399.966 786.923 428.195 786.923 428.195C801.451 444.007 830.734 450.864 846.802 447.246L858.252 383.73" fill="white"/>
<path d="M846.782 447.246L857.329 388.732" stroke="#225BAF" stroke-width="0.75" stroke-miterlimit="10"/>
<path d="M888.952 310.856L872.104 279.054L858.889 304.447L859.771 310.276L854.559 329.259C859.771 346.076 881.318 347.974 885.792 339.019L888.952 310.856Z" fill="#F8BD86"/>
<path d="M903.809 268.2C906.558 279.523 907.297 317.936 898.945 322.001C890.593 326.043 873.746 322.18 868.821 315.323C864.553 309.36 860.51 277.401 868.185 269.607C875.88 261.79 899.951 252.343 903.809 268.2Z" fill="#F8BD86"/>
<path d="M878.322 275.637C886.181 277.111 893.015 274.744 899.109 272.577C905.204 270.411 910.929 266.212 913.884 260.026C916.347 254.867 916.511 247.586 910.498 244.75C909.062 244.08 907.461 243.812 905.902 243.924C900.895 244.303 896.914 247.609 893.117 250.825C894.697 242.271 879.82 246.179 876.721 249.261C875.757 250.244 875.1 251.472 873.931 252.254C870.401 254.554 865.907 254.711 862.152 256.475C857.514 258.664 853.841 263.153 852.363 268.423C851.132 272.823 849.634 280.126 852.918 285.419C854.498 287.943 856.016 290.712 856.468 293.704L859.074 305.921C859.074 305.921 864.347 301.811 864.922 301.32C866.995 299.533 867.774 297.211 869.437 295.022C873.705 289.439 876.598 281.354 878.322 275.637Z" fill="#00276F"/>
<path d="M873.13 292.186C872.125 290.176 870.791 287.898 868.841 287.719C867.836 287.608 866.871 288.144 866.153 288.903C862.418 292.767 862.131 300.226 866.051 304.134C867.692 305.765 869.97 306.502 871.489 304.246L873.438 293.615C873.582 293.146 873.356 292.633 873.13 292.186Z" fill="#F8BD86"/>
<path d="M887.515 324.167C887.515 324.167 874.033 323.631 868.369 314.541" stroke="#D34F9B" stroke-width="0.75" stroke-miterlimit="10"/>
<path d="M896.852 286.692C896.852 286.692 902.331 296.854 900.628 299.645C898.925 302.437 894.431 300.762 894.431 300.762" stroke="#D34F9B" stroke-width="0.75" stroke-miterlimit="10"/>
<path d="M890.183 286.334C890.409 287.049 890.347 288.032 890.388 288.612C890.45 289.662 889.424 290.22 888.562 289.908C886.941 289.327 887.249 285.173 889.239 285.419C889.752 285.486 890.019 285.865 890.183 286.334Z" fill="#00276F"/>
<path d="M903.624 286.334C903.85 287.049 903.788 288.032 903.829 288.612C903.891 289.662 902.865 290.22 902.003 289.908C900.382 289.327 900.689 285.173 902.68 285.419C903.193 285.486 903.48 285.865 903.624 286.334Z" fill="#00276F"/>
<path d="M899.458 308.511L885.607 304.201C885.607 304.201 885.053 315.703 893.446 317.4C898.535 318.45 899.458 308.511 899.458 308.511Z" fill="white"/>
<path d="M891.27 280.774C888.603 280.796 885.751 281.466 883.411 282.583C883.144 282.426 882.447 281.042 882.857 280.238C883.165 279.59 887.351 278.027 891.106 278.116C891.106 278.116 891.783 280.416 891.27 280.774Z" fill="#00276F"/>
<path d="M898.699 280.617C900.607 280.64 902.557 281.265 904.055 282.315C904.281 282.158 904.753 281.019 904.609 280.26C904.506 279.657 901.757 278.161 899.027 278.25C899.027 278.25 898.391 280.26 898.699 280.617Z" fill="#00276F"/>
<path d="M864.389 301.812C864.389 301.812 867.118 306.256 870.791 305.005" stroke="#D34F9B" stroke-width="0.75" stroke-miterlimit="10"/>
<path d="M781.321 492.739V503.056" stroke="white" stroke-miterlimit="10" stroke-linecap="round" stroke-linejoin="round"/>
<path d="M786.061 497.897H776.581" stroke="white" stroke-miterlimit="10" stroke-linecap="round" stroke-linejoin="round"/>
<path d="M704.184 179.023C704.184 181.748 702.153 183.959 699.649 183.959C697.146 183.959 695.114 181.748 695.114 179.023C695.114 176.299 697.146 174.088 699.649 174.088C702.153 174.11 704.184 176.299 704.184 179.023Z" stroke="white" stroke-miterlimit="10" stroke-linecap="round" stroke-linejoin="round"/>
<path d="M542.359 613.204C542.072 613.204 541.784 613.07 541.579 612.824C541.415 612.623 537.721 608.135 531.606 609.988C531.052 610.144 530.498 609.809 530.334 609.206C530.19 608.603 530.498 608 531.052 607.822C538.46 605.589 542.934 611.127 543.118 611.35C543.488 611.819 543.447 612.512 543.016 612.914C542.831 613.115 542.585 613.204 542.359 613.204Z" fill="white"/>
<path d="M531.709 620.284C531.504 620.284 531.278 620.217 531.093 620.061C530.642 619.703 530.539 618.989 530.867 618.497C533.925 613.986 538.44 615.415 540.389 616.822C540.861 617.157 541.005 617.85 540.697 618.363C540.389 618.877 539.753 619.033 539.281 618.698C538.87 618.408 535.136 615.974 532.509 619.837C532.345 620.128 532.037 620.284 531.709 620.284Z" fill="white"/>
<path d="M524.814 640.964C524.506 640.964 524.219 640.83 524.014 640.54C523.665 640.049 523.726 639.356 524.178 638.977L527.153 636.408L525.265 635.537C524.958 635.381 524.732 635.091 524.67 634.711C524.609 634.354 524.711 633.974 524.958 633.706L526.845 631.674L523.295 630.177C522.762 629.954 522.495 629.306 522.7 628.726C522.905 628.145 523.501 627.855 524.034 628.078L529.082 630.2C529.411 630.334 529.657 630.646 529.718 631.026C529.8 631.406 529.677 631.785 529.431 632.053L527.482 634.13L529.534 635.091C529.862 635.247 530.108 635.582 530.149 635.962C530.19 636.341 530.047 636.743 529.78 636.989L525.45 640.719C525.265 640.897 525.04 640.964 524.814 640.964Z" fill="white"/>
<path d="M491.714 111.331H320.696C291.372 111.331 267.588 137.216 267.588 169.13C267.588 201.044 291.372 226.928 320.696 226.928H335.942L345.505 240.373L355.068 226.928H491.714C521.038 226.928 544.821 201.044 544.821 169.13C544.821 137.216 521.059 111.331 491.714 111.331Z" fill="white" stroke="white" stroke-miterlimit="10" stroke-linecap="round" stroke-linejoin="round"/>
<path d="M317.371 204.885C335.516 204.885 350.225 188.877 350.225 169.13C350.225 149.383 335.516 133.374 317.371 133.374C299.227 133.374 284.518 149.383 284.518 169.13C284.518 188.877 299.227 204.885 317.371 204.885Z" fill="#E6EFFC"/>
<path d="M341.993 175.485C345.201 160.697 336.787 145.877 323.199 142.385C309.61 138.893 295.994 148.051 292.785 162.84C289.576 177.628 297.991 192.448 311.579 195.94C325.168 199.432 338.784 190.274 341.993 175.485Z" fill="#FF5A89"/>
<path d="M307.296 151.71C312.467 146.573 322.44 145.322 326.4 151.553C328.165 154.323 328.535 158.186 330.874 160.375C331.654 161.112 332.639 161.603 333.213 162.541C334.178 164.105 333.706 166.249 333.07 168.013C332.433 169.777 331.654 171.698 332.146 173.529C332.495 174.825 333.46 175.964 333.275 177.304C333.049 179.113 331.018 179.716 329.417 179.827C328.104 179.939 326.79 179.984 325.477 179.894C323.466 179.738 321.476 179.202 319.444 179.291C316.981 179.403 314.622 180.475 312.2 181.011C309.594 181.592 306.885 181.569 304.279 180.922C302.72 180.542 300.955 179.604 300.791 177.817C300.688 176.611 301.406 175.472 301.447 174.266C301.509 172.212 299.621 170.581 299.621 168.527C299.621 166.115 302.022 164.708 303.089 162.631C304.033 160.777 303.848 158.477 304.423 156.444C304.915 154.658 305.941 153.05 307.296 151.71Z" fill="#00276F"/>
<path d="M290.264 193.92C298.595 183.535 311.031 183.758 311.031 183.758L323.302 183.535C323.302 183.535 334.239 185.098 340.806 190.949C360.485 208.481 357.202 239.278 357.202 239.278C357.202 239.278 277.418 220.474 277.315 219.871C277.233 219.268 284.703 200.865 290.264 193.92Z" fill="#0070E4"/>
<path d="M324.738 158.187C327.221 169.085 322.707 177.237 318.849 177.862C313.308 178.778 310.23 175.807 308.589 170.425C307.87 168.058 306.803 159.08 309.102 156.422C312.918 152.067 322.625 148.896 324.738 158.187Z" fill="#F8BD86"/>
<path d="M311.687 172.77L311.133 182.798C311.133 182.798 309.84 188.18 317.412 188.18C324.985 188.18 323.158 182.798 323.158 182.798L321.927 171.698" fill="#F8BD86"/>
<path d="M308.958 166.405C308.486 165.847 307.48 165.735 306.885 166.204C306.372 166.606 306.249 167.276 306.208 167.879C306.167 168.46 306.208 169.063 306.413 169.621C306.639 170.179 307.05 170.693 307.645 170.916C308.24 171.162 308.999 171.095 309.45 170.671" fill="#F8BD86"/>
<path d="M324.41 166.405C324.882 165.847 325.887 165.735 326.482 166.204C326.995 166.606 327.119 167.276 327.16 167.879C327.201 168.46 327.16 169.063 326.954 169.621C326.729 170.179 326.318 170.693 325.723 170.916C325.128 171.14 324.369 171.095 323.917 170.671" fill="#F8BD86"/>
<path d="M305.962 164.998C310.682 163.904 314.991 160.911 317.905 156.712C320.408 160.04 323.692 162.653 327.344 164.216C327.652 161.536 327.919 158.678 326.852 156.221C326.113 154.524 324.8 153.228 323.507 152C322.399 150.95 321.25 149.878 319.875 149.32C317.228 148.226 314.17 149.186 311.851 150.928C308.548 153.385 306.29 157.427 305.798 161.76" fill="#00276F"/>
<path d="M319.239 148.784C318.992 148.94 318.685 148.695 318.479 148.449C317.72 147.511 316.92 146.305 317.269 145.099C317.433 144.563 317.823 144.116 318.254 143.781C319.28 143 320.675 142.754 321.824 143.29C322.973 143.826 323.794 145.211 323.61 146.551C323.445 147.891 322.194 149.03 320.962 148.829" fill="#00276F"/>
<path d="M311.954 176.5C311.954 176.5 313.554 178.934 316.448 179.157C320.162 179.448 321.783 175.718 321.783 175.718" stroke="#D34F9B" stroke-width="0.5" stroke-miterlimit="10" stroke-linecap="round" stroke-linejoin="round"/>
<path d="M317.392 171.81C317.392 171.81 315.73 172.189 315.73 171.073C315.73 169.956 316.243 164.998 316.243 164.998" stroke="#D34F9B" stroke-width="0.5" stroke-miterlimit="10" stroke-linecap="round" stroke-linejoin="round"/>
<path d="M320.347 165.869C320.326 166.003 320.306 166.159 320.285 166.293C320.285 166.383 320.285 166.45 320.285 166.539C320.285 166.606 320.285 166.695 320.285 166.762C320.285 166.807 320.285 166.829 320.285 166.874C320.285 166.986 320.306 167.097 320.326 167.209C320.347 167.321 320.408 167.432 320.47 167.499C320.531 167.589 320.593 167.678 320.696 167.723C320.757 167.745 320.819 167.79 320.88 167.812C320.983 167.857 321.085 167.857 321.209 167.834C321.291 167.834 321.352 167.812 321.414 167.767C321.516 167.723 321.598 167.678 321.681 167.589C321.824 167.41 321.927 167.209 321.927 166.963C321.927 166.74 321.865 166.517 321.824 166.293C321.804 166.226 321.804 166.137 321.783 166.07C321.763 166.003 321.742 165.914 321.722 165.847C321.701 165.78 321.681 165.735 321.66 165.668C321.619 165.579 321.557 165.512 321.475 165.445C321.434 165.4 321.373 165.355 321.311 165.355C321.229 165.311 321.127 165.288 321.044 165.288C320.983 165.288 320.921 165.311 320.86 165.311C320.798 165.333 320.757 165.355 320.696 165.378C320.613 165.422 320.552 165.489 320.49 165.579C320.408 165.69 320.367 165.78 320.347 165.869Z" fill="#00276F"/>
<path d="M319.608 163.68C319.608 163.68 320.901 162.631 322.973 163.971" stroke="#00276F" stroke-width="0.5" stroke-miterlimit="10" stroke-linecap="round" stroke-linejoin="round"/>
<path d="M311.544 165.869C311.523 165.936 311.482 166.003 311.482 166.092C311.462 166.159 311.462 166.249 311.441 166.316C311.4 166.539 311.338 166.762 311.338 166.986C311.338 167.097 311.359 167.209 311.4 167.321C311.441 167.432 311.482 167.522 311.564 167.611C311.626 167.656 311.667 167.7 311.728 167.745C311.831 167.812 311.913 167.834 312.036 167.857C312.098 167.879 312.18 167.879 312.241 167.857C312.344 167.857 312.446 167.812 312.549 167.745C312.611 167.7 312.652 167.656 312.713 167.611C312.816 167.499 312.877 167.365 312.918 167.231C312.939 167.075 312.959 166.941 312.959 166.785C312.959 166.695 312.959 166.628 312.959 166.539C312.959 166.472 312.959 166.383 312.959 166.316C312.959 166.182 312.918 166.025 312.898 165.891C312.877 165.824 312.857 165.78 312.836 165.713C312.795 165.623 312.734 165.556 312.652 165.489C312.611 165.445 312.549 165.4 312.487 165.4C312.405 165.355 312.303 165.333 312.221 165.333C312.159 165.333 312.098 165.355 312.036 165.355C311.975 165.378 311.933 165.4 311.872 165.422C311.79 165.467 311.728 165.534 311.667 165.623C311.626 165.69 311.564 165.78 311.544 165.869Z" fill="#00276F"/>
<path d="M313.637 163.68C313.637 163.68 312.344 162.631 310.271 163.971" stroke="#00276F" stroke-width="0.5" stroke-miterlimit="10" stroke-linecap="round" stroke-linejoin="round"/>
<path d="M314.17 173.328H319.608C319.608 173.328 318.849 176.388 316.858 176.388C314.888 176.388 314.17 173.328 314.17 173.328Z" fill="white"/>
<path d="M362.414 139.404H510.839" stroke="#E6EFFC" stroke-width="3" stroke-miterlimit="10" stroke-linecap="round" stroke-linejoin="round"/>
<path d="M362.414 159.214H510.839" stroke="#E6EFFC" stroke-width="3" stroke-miterlimit="10" stroke-linecap="round" stroke-linejoin="round"/>
<path d="M481.167 179.023H510.839" stroke="#E6EFFC" stroke-width="3" stroke-miterlimit="10" stroke-linecap="round" stroke-linejoin="round"/>
<path d="M362.414 179.023H464.278" stroke="#E6EFFC" stroke-width="3" stroke-miterlimit="10" stroke-linecap="round" stroke-linejoin="round"/>
<path d="M362.414 198.833H440.946" stroke="#E6EFFC" stroke-width="3" stroke-miterlimit="10" stroke-linecap="round" stroke-linejoin="round"/>
<path d="M620.296 189.922H791.315C820.639 189.922 844.422 215.806 844.422 247.721C844.422 279.635 820.639 305.519 791.315 305.519H784.03L774.467 318.964L764.905 305.519H620.296C590.972 305.519 567.189 279.635 567.189 247.721C567.189 215.806 590.972 189.922 620.296 189.922Z" fill="white" stroke="white" stroke-miterlimit="10" stroke-linecap="round" stroke-linejoin="round"/>
<path d="M794.639 283.476C812.784 283.476 827.493 267.468 827.493 247.721C827.493 227.973 812.784 211.965 794.639 211.965C776.495 211.965 761.786 227.973 761.786 247.721C761.786 267.468 776.495 283.476 794.639 283.476Z" fill="#E6EFFC"/>
<path d="M800.517 274.479C814.102 270.968 822.501 256.137 819.275 241.351C816.05 226.565 802.422 217.425 788.837 220.935C775.251 224.445 766.852 239.277 770.078 254.063C773.303 268.848 786.931 277.989 800.517 274.479Z" fill="#FF5A89"/>
<path d="M821.747 272.51C813.415 262.125 800.98 262.349 800.98 262.349L788.709 262.125C788.709 262.125 777.771 263.689 771.204 269.54C751.525 287.072 754.808 317.869 754.808 317.869C754.808 317.869 834.593 299.065 834.695 298.462C834.798 297.881 827.328 279.456 821.747 272.51Z" fill="#0070E4"/>
<path d="M786.472 236.777C783.989 247.676 788.503 255.827 792.361 256.453C797.902 257.368 800.98 254.398 802.621 249.016C803.34 246.648 804.407 237.67 802.108 235.013C798.292 230.658 788.585 227.486 786.472 236.777Z" fill="#F8BD86"/>
<path d="M801.39 251.204L801.513 261.232C801.513 261.232 802.97 266.614 794.413 266.614C785.856 266.614 787.908 261.232 787.908 261.232L788.052 250.132" fill="#F8BD86"/>
<path d="M802.396 245.018C802.868 244.46 803.873 244.348 804.468 244.817C804.981 245.219 805.104 245.889 805.145 246.492C805.186 247.073 805.146 247.676 804.94 248.234C804.715 248.792 804.304 249.306 803.709 249.529C803.114 249.775 802.355 249.708 801.903 249.284" fill="#F8BD86"/>
<path d="M800.96 255.091C800.96 255.091 798.969 257.525 795.378 257.748C790.74 258.039 788.75 254.309 788.75 254.309" stroke="#D34F9B" stroke-width="0.5" stroke-miterlimit="10" stroke-linecap="round" stroke-linejoin="round"/>
<path d="M793.88 248.346C793.88 248.346 795.542 248.681 795.542 247.698C795.542 246.715 795.029 242.338 795.029 242.338" stroke="#D34F9B" stroke-width="0.5" stroke-miterlimit="10" stroke-linecap="round" stroke-linejoin="round"/>
<path d="M789.57 243.209C789.55 243.276 789.509 243.343 789.509 243.432C789.488 243.499 789.488 243.589 789.468 243.656C789.427 243.879 789.365 244.102 789.365 244.326C789.365 244.437 789.386 244.549 789.427 244.661C789.468 244.772 789.509 244.862 789.591 244.951C789.652 244.996 789.693 245.04 789.755 245.085C789.858 245.152 789.94 245.174 790.063 245.197C790.124 245.219 790.206 245.219 790.268 245.197C790.371 245.197 790.473 245.152 790.576 245.085C790.637 245.04 790.678 244.996 790.74 244.951C790.843 244.839 790.904 244.705 790.945 244.571C790.966 244.415 790.986 244.281 790.986 244.125C790.986 244.035 790.986 243.968 790.986 243.879C790.986 243.812 790.986 243.723 790.986 243.656C790.986 243.522 790.945 243.365 790.925 243.231C790.904 243.164 790.884 243.12 790.863 243.053C790.822 242.963 790.761 242.896 790.678 242.829C790.637 242.785 790.576 242.74 790.514 242.74C790.432 242.695 790.33 242.673 790.248 242.673C790.186 242.673 790.124 242.695 790.063 242.695C790.001 242.718 789.96 242.74 789.899 242.762C789.817 242.807 789.755 242.874 789.693 242.963C789.632 243.03 789.591 243.12 789.57 243.209Z" fill="#00276F"/>
<path d="M798.353 243.209C798.333 243.343 798.312 243.499 798.292 243.633C798.292 243.723 798.292 243.79 798.292 243.879C798.292 243.946 798.292 244.035 798.292 244.102C798.292 244.147 798.292 244.169 798.292 244.214C798.292 244.326 798.312 244.437 798.333 244.549C798.353 244.661 798.415 244.772 798.476 244.839C798.538 244.929 798.6 245.018 798.702 245.063C798.764 245.085 798.825 245.13 798.887 245.152C798.989 245.197 799.092 245.197 799.215 245.174C799.297 245.174 799.359 245.152 799.42 245.107C799.523 245.063 799.605 245.018 799.687 244.929C799.831 244.75 799.933 244.549 799.933 244.303C799.933 244.08 799.872 243.857 799.831 243.633C799.81 243.566 799.81 243.477 799.79 243.41C799.769 243.343 799.749 243.254 799.728 243.187C799.708 243.12 799.687 243.075 799.667 243.008C799.626 242.919 799.564 242.852 799.482 242.785C799.441 242.74 799.379 242.695 799.318 242.695C799.236 242.651 799.133 242.628 799.051 242.628C798.989 242.628 798.928 242.651 798.866 242.651C798.805 242.673 798.764 242.695 798.702 242.718C798.62 242.762 798.558 242.829 798.497 242.919C798.435 243.03 798.374 243.12 798.353 243.209Z" fill="#00276F"/>
<path d="M798.599 251.383H791.643C791.643 251.383 791.971 254.443 795.152 254.443C798.333 254.443 798.599 251.383 798.599 251.383Z" fill="white"/>
<path d="M785.877 246.068C787.477 243.499 789.016 240.953 788.77 237.335C791.807 238.698 795.788 238.675 798.928 238.072C800.918 237.693 803.278 236.866 804.879 235.37C806.479 233.874 807.095 228.938 805.617 227.263C804.037 225.477 801.493 226.571 799.584 227.822C798.764 226.102 797.245 224.941 795.624 224.762C794.003 224.583 792.341 225.41 791.274 226.928C790.986 227.352 790.699 227.844 790.289 228.045C789.776 228.29 789.222 228.022 788.688 227.888C785.795 227.174 783.065 232.199 782.552 235.772C782.039 239.323 783.148 242.896 784.297 246.224C784.481 246.738 784.933 247.341 785.282 246.983" fill="#00276F"/>
<path d="M803.566 233.449C806.09 237.09 806.377 242.405 804.263 246.336C804.181 246.47 804.099 246.626 803.955 246.693C803.771 246.76 803.566 246.626 803.422 246.492C802.765 245.867 802.457 244.906 802.355 243.968C802.252 243.03 802.314 242.07 802.273 241.132C802.17 238.854 801.411 236.643 800.098 234.856" fill="#00276F"/>
<path d="M786.882 245.018C786.41 244.46 785.405 244.348 784.81 244.817C784.297 245.219 784.174 245.889 784.132 246.492C784.091 247.073 784.132 247.676 784.338 248.234C784.563 248.792 784.974 249.306 785.569 249.529C786.164 249.775 786.923 249.708 787.375 249.284" fill="#F8BD86"/>
<path d="M749.617 218.017H601.191" stroke="#E6EFFC" stroke-width="3" stroke-miterlimit="10" stroke-linecap="round" stroke-linejoin="round"/>
<path d="M710.012 237.827H601.191" stroke="#E6EFFC" stroke-width="3" stroke-miterlimit="10" stroke-linecap="round" stroke-linejoin="round"/>
<path d="M749.617 237.827H724.192" stroke="#E6EFFC" stroke-width="3" stroke-miterlimit="10" stroke-linecap="round" stroke-linejoin="round"/>
<path d="M646.234 257.636H601.191" stroke="#E6EFFC" stroke-width="3" stroke-miterlimit="10" stroke-linecap="round" stroke-linejoin="round"/>
<path d="M749.617 257.636H663.123" stroke="#E6EFFC" stroke-width="3" stroke-miterlimit="10" stroke-linecap="round" stroke-linejoin="round"/>
<path d="M695.032 277.446H601.191" stroke="#E6EFFC" stroke-width="3" stroke-miterlimit="10" stroke-linecap="round" stroke-linejoin="round"/>
<path d="M491.796 291.203C491.427 288.568 489.457 286.424 487.056 285.977C484.306 285.464 481.844 287.072 480.777 289.506C479.71 287.049 477.247 285.464 474.497 285.977C472.076 286.424 470.127 288.59 469.757 291.203C469.449 293.37 470.127 295.357 471.399 296.72L479.71 305.765C480.305 306.412 481.249 306.412 481.844 305.765L490.155 296.72C491.406 295.357 492.104 293.37 491.796 291.203Z" fill="white"/>
<path d="M521.202 291.203C520.833 288.568 518.863 286.424 516.462 285.977C513.712 285.464 511.25 287.072 510.183 289.506C509.116 287.049 506.653 285.464 503.903 285.977C501.482 286.424 499.532 288.59 499.163 291.203C498.855 293.37 499.532 295.357 500.805 296.72L509.116 305.765C509.711 306.412 510.655 306.412 511.25 305.765L519.561 296.72C520.833 295.357 521.51 293.37 521.202 291.203Z" fill="white"/>
<path d="M550.608 291.203C550.239 288.568 548.269 286.424 545.868 285.977C543.118 285.464 540.656 287.072 539.589 289.506C538.522 287.049 536.059 285.464 533.31 285.977C530.888 286.424 528.939 288.59 528.569 291.203C528.261 293.37 528.939 295.357 530.211 296.72L538.522 305.765C539.117 306.412 540.061 306.412 540.656 305.765L548.967 296.72C550.239 295.357 550.937 293.37 550.608 291.203Z" fill="white"/>
<path d="M742.599 568.627C742.23 565.992 740.26 563.848 737.859 563.401C735.109 562.887 732.646 564.495 731.579 566.93C730.512 564.473 728.05 562.887 725.3 563.401C722.879 563.848 720.929 566.014 720.56 568.627C720.252 570.793 720.929 572.781 722.201 574.143L730.512 583.188C731.107 583.836 732.051 583.836 732.646 583.188L740.957 574.143C742.23 572.781 742.907 570.793 742.599 568.627Z" fill="white"/>
<path d="M772.005 568.627C771.636 565.992 769.666 563.848 767.265 563.401C764.515 562.887 762.053 564.495 760.985 566.93C759.918 564.473 757.456 562.887 754.706 563.401C752.285 563.848 750.335 566.014 749.966 568.627C749.658 570.793 750.335 572.781 751.608 574.143L759.918 583.188C760.514 583.836 761.457 583.836 762.053 583.188L770.363 574.143C771.636 572.781 772.313 570.793 772.005 568.627Z" fill="white"/>
<path d="M801.431 568.627C801.062 565.992 799.092 563.848 796.691 563.401C793.941 562.887 791.479 564.495 790.412 566.93C789.345 564.473 786.882 562.887 784.132 563.401C781.711 563.848 779.762 566.014 779.392 568.627C779.084 570.793 779.762 572.781 781.034 574.143L789.345 583.188C789.94 583.836 790.884 583.836 791.479 583.188L799.79 574.143C801.041 572.781 801.739 570.793 801.431 568.627Z" fill="white"/>
<defs>
<linearGradient id="paint0_linear_1_1022" x1="1010.87" y1="339.907" x2="981.076" y2="369.031" gradientUnits="userSpaceOnUse">
<stop stop-color="white" stop-opacity="0.6"/>
<stop offset="0.8878" stop-color="white" stop-opacity="0.1"/>
</linearGradient>
<linearGradient id="paint1_linear_1_1022" x1="1009.68" y1="335.832" x2="979.943" y2="364.904" gradientUnits="userSpaceOnUse">
<stop stop-color="white" stop-opacity="0.6"/>
<stop offset="0.8878" stop-color="white" stop-opacity="0.1"/>
</linearGradient>
</defs>
</svg>
