<svg width="27" height="27" viewBox="0 0 27 27" fill="none" xmlns="http://www.w3.org/2000/svg">
<path d="M1.88472 0.00082091C1.12141 0.00102143 0.434323 0.463829 0.147095 1.17125C-0.140132 1.87868 0.0297712 2.68965 0.576778 3.22219L10.5054 13.1538L0.576778 23.0855C0.0867461 23.5561 -0.11065 24.255 0.0607187 24.9125C0.232088 25.5701 0.745443 26.0836 1.4028 26.255C2.06016 26.4265 2.7588 26.229 3.22929 25.7388L13.1579 15.8072L23.0865 25.7388C23.557 26.229 24.2556 26.4265 24.913 26.2551C25.5703 26.0836 26.0837 25.5701 26.2551 24.9126C26.4264 24.255 26.229 23.5561 25.739 23.0855L15.8104 13.1538L25.739 3.22219C26.2938 2.68275 26.4606 1.85794 26.1591 1.1452C25.8575 0.43246 25.1495 -0.021993 24.3761 0.00082091C23.8888 0.0153463 23.4262 0.219083 23.0865 0.568868L13.1579 10.5005L3.22929 0.568868C2.87613 0.205725 2.39119 0.000850443 1.88472 0.00082091Z" fill="url(#paint0_linear_227_919)"/>
<defs>
<linearGradient id="paint0_linear_227_919" x1="0" y1="0" x2="0" y2="26.3158" gradientUnits="userSpaceOnUse">
<stop stop-color="#8E8E93"/>
<stop offset="1" stop-color="#AEAEB2"/>
</linearGradient>
</defs>
</svg>
